# xmcd
#
# Track frame offsets: 
#        150
#        11727
#        23330
#        32942
#        45377
#        57317
#        69380
#        84200
#        94827
#        108750
#        121212
#        133682
#        146557
#        157057
#
# Disc length: 2271 seconds
#
# Revision: 1
# Processed by: cddbd v1.5.2PL0 Copyright (c) Steve Scherf et al.
# Submitted via: ExactAudioCopy v1.1
#
DISCID=ae08dd0e
DTITLE=Various Artist - Spotlite On Jubilee Record - Volume 2
DYEAR=1995
DGENRE=R&B
TTITLE0=The Marylanders - Please Love Me (mono)
TTITLE1=The Orioles - Secret Love (mono)
TTITLE2=Billy Ward and His Dominoes - Take Me Back To Heaven (mono)
TTITLE3=The Top Notes - I'll Always Love You Some (mono)
TTITLE4=The Five Sharps - Stormy Weather (mono)
TTITLE5=The Marylanders - Good Old 999 (mono)
TTITLE6=The Orioles - Forgive And Forget (mono)
TTITLE7=The Four Tunes - Marie (mono)
TTITLE8=The Ravens - The Bells Of San Raquel (mono)
TTITLE9=The Bob Knight Four - Two Friends (mono)
TTITLE10=Frank 'Fat Man' Humphries and The Four Notes - Lulabell Blues (
TTITLE10=mono)
TTITLE11=The Orioles - Pal Of Mine (mono)
TTITLE12=The Ray-O-Vacs - Outside Of Paradise (mono)
TTITLE13=The Top Notes - I'm Still In Love With You (mono)
EXTD=
EXTT0=
EXTT1=
EXTT2=
EXTT3=
EXTT4=
EXTT5=
EXTT6=
EXTT7=
EXTT8=
EXTT9=
EXTT10=
EXTT11=
EXTT12=
EXTT13=
PLAYORDER=
